<svg xmlns="http://www.w3.org/2000/svg" viewBox="0 0 1440 600" width="1440" height="600">
  <defs>
    <linearGradient id="bg" x1="0%" y1="0%" x2="100%" y2="100%">
      <stop offset="0%" style="stop-color:#000000"/>
      <stop offset="100%" style="stop-color:#0a0a0a"/>
    </linearGradient>
    <filter id="glow">
      <feGaussianBlur stdDeviation="2" result="blur"/>
      <feMerge><feMergeNode in="blur"/><feMergeNode in="SourceGraphic"/></feMerge>
    </filter>
  </defs>
  <rect width="1440" height="600" fill="url(#bg)"/>
  <!-- Subtle grid -->
  <g opacity="0.03" stroke="#ffffff" stroke-width="1">
    <line x1="0" y1="100" x2="1440" y2="100"/>
    <line x1="0" y1="200" x2="1440" y2="200"/>
    <line x1="0" y1="300" x2="1440" y2="300"/>
    <line x1="0" y1="400" x2="1440" y2="400"/>
    <line x1="0" y1="500" x2="1440" y2="500"/>
    <line x1="200" y1="0" x2="200" y2="600"/>
    <line x1="400" y1="0" x2="400" y2="600"/>
    <line x1="600" y1="0" x2="600" y2="600"/>
    <line x1="800" y1="0" x2="800" y2="600"/>
    <line x1="1000" y1="0" x2="1000" y2="600"/>
    <line x1="1200" y1="0" x2="1200" y2="600"/>
  </g>
  <!-- Badge -->
  <rect x="580" y="120" width="280" height="30" rx="15" fill="rgba(255,255,255,0.04)" stroke="rgba(255,255,255,0.06)" stroke-width="1"/>
  <text x="720" y="140" text-anchor="middle" font-family="system-ui, -apple-system, sans-serif" font-size="11" font-weight="500" letter-spacing="2" fill="#71717a" text-transform="uppercase">LAUNCH COPILOT FOR INDIE HACKERS</text>
  <!-- Title -->
  <text x="720" y="240" text-anchor="middle" font-family="system-ui, -apple-system, sans-serif" font-size="72" font-weight="700" fill="#ffffff" letter-spacing="-2">Launch Your Project</text>
  <text x="720" y="320" text-anchor="middle" font-family="system-ui, -apple-system, sans-serif" font-size="72" font-weight="700" fill="#71717a" letter-spacing="-2">in 24 Hours</text>
  <!-- Subtitle -->
  <text x="720" y="380" text-anchor="middle" font-family="system-ui, -apple-system, sans-serif" font-size="18" fill="#71717a">Get an actionable launch plan tailored to your project.</text>
  <text x="720" y="405" text-anchor="middle" font-family="system-ui, -apple-system, sans-serif" font-size="18" fill="#71717a">Personalized channel recommendations, outreach playbooks, and a step-by-step timeline.</text>
  <!-- CTA Button -->
  <rect x="590" y="450" width="260" height="52" rx="8" fill="#ffffff"/>
  <text x="700" y="482" text-anchor="middle" font-family="system-ui, -apple-system, sans-serif" font-size="14" font-weight="600" fill="#000000">Create Your Launch Plan  --></text>
  <!-- Nav -->
  <text x="100" y="45" font-family="system-ui, -apple-system, sans-serif" font-size="13" font-weight="700" letter-spacing="2" fill="#ffffff">AUTOMATIC LAUNCHER</text>
  <text x="1340" y="45" text-anchor="end" font-family="system-ui, -apple-system, sans-serif" font-size="14" fill="#71717a">Launch</text>
</svg>